<?xml version="1.0" encoding="utf-8"?>

<!DOCTYPE svg PUBLIC "-//W3C//DTD SVG 1.1//EN" "http://www.w3.org/Graphics/SVG/1.1/DTD/svg11.dtd">
<!-- Uploaded to: SVG Repo, www.svgrepo.com, Generator: SVG Repo Mixer Tools -->
<svg height="800px" width="800px" version="1.1" id="_x32_" xmlns="http://www.w3.org/2000/svg" xmlns:xlink="http://www.w3.org/1999/xlink" 
	 viewBox="0 0 512 512"  xml:space="preserve">
<style type="text/css">
	.st0{fill:#000000;}
</style>
<g>
	<path class="st0" d="M336.967,27.909C336.967,12.484,324.484,0,309.058,0H202.941c-15.416,0-27.918,12.484-27.918,27.909v70.559
		h161.944V27.909z"/>
	<path class="st0" d="M256.004,227.144c47.1,0,85.93-35.106,91.928-80.527h-28.322l27.336-36.439l-7.872-5.909l-31.77,42.348
		h-102.59l-31.76-42.348l-7.882,5.909l27.332,36.439h-28.326C170.065,192.038,208.902,227.144,256.004,227.144z"/>
	<path class="st0" d="M150.313,355.626V207.179c0-5.038-4.096-9.125-9.126-9.125c-5.038,0-9.116,4.087-9.116,9.125v45.058
		c-1.84-0.453-3.812-0.88-5.882-1.306v-56.653c0-5.038-4.096-9.116-9.116-9.116c-5.039,0-9.126,4.078-9.126,9.116v52.859
		c-1.964-0.427-3.927-0.836-5.873-1.218V190.99c0-5.02-4.087-9.116-9.108-9.116c-5.055,0-9.125,4.096-9.125,9.116v52.708
		c-2.07,0-3.998,0.177-5.873,0.479v-36.812c0-5.029-4.096-9.108-9.125-9.108c-5.038,0-9.117,4.079-9.117,9.108
		c0,0-0.062,63.37-0.035,64.774c-1.048,8.814-16.926-9.019-30.85-12.804c-14.74-4.024-18.473,9.988-4.016,21.441
		c24.426,19.379,35.123,42.525,35.123,58.608v16.242H150.313z"/>
	<path class="st0" d="M483.166,259.336c-13.905,3.785-29.811,21.618-30.85,12.804c0.026-1.404-0.027-64.774-0.027-64.774
		c0-5.029-4.087-9.108-9.125-9.108c-5.029,0-9.108,4.079-9.108,9.108v36.812c-1.874-0.302-3.839-0.479-5.89-0.479V190.99
		c0-5.02-4.07-9.116-9.108-9.116c-5.038,0-9.117,4.096-9.117,9.116v54.929c-1.954,0.382-3.901,0.791-5.882,1.218v-52.859
		c0-5.038-4.095-9.116-9.116-9.116c-5.047,0-9.125,4.078-9.125,9.116v56.653c-2.071,0.427-4.052,0.853-5.882,1.306v-45.058
		c0-5.038-4.079-9.125-9.116-9.125c-5.038,0-9.108,4.087-9.108,9.125v148.447h90.346v-16.242c0-16.083,10.716-39.228,35.124-58.608
		C501.621,269.324,497.907,255.312,483.166,259.336z"/>
	<path class="st0" d="M361.73,386.326h-13.098V281.7c0-4.842-6.548-10.609-11.39-10.609H311.83l-55.826,55.818l-55.827-55.818
		h-25.412c-4.674,0-11.391,5.767-11.391,10.609v104.626h-13.096V366.52H60.002l0.471,41.628v50.522
		c0,13.248,11.39,29.793,23.084,35.861c11.692,6.247,37.256,13.266,66.418-11.373V512h212.057v-28.842
		c29.162,24.64,54.725,17.62,66.427,11.373c11.693-6.068,23.084-22.613,23.084-35.861v-50.522l0.472-41.628H361.73V386.326z"/>
</g>
</svg>