<?xml version="1.0" encoding="utf-8"?>
<!-- Uploaded to: SVG Repo, www.svgrepo.com, Generator: SVG Repo Mixer Tools -->
<svg fill="#000000" version="1.1" id="Layer_1" xmlns="http://www.w3.org/2000/svg" xmlns:xlink="http://www.w3.org/1999/xlink" 
	 width="800px" height="800px" viewBox="0 0 210 256" enable-background="new 0 0 210 256" xml:space="preserve">
<path d="M174.55,144.5L174.55,144.5c-1.4-4-5-6.5-9.2-6.5H159V23c0-11.708-9.292-21-21-21H25C12.57,2,2,12.57,2,25v183
	c0,11.9,10.95,22,22.75,22l114.213,0c1.207,0,2.27,0.984,2.18,2.188c-0.095,1.266-1.153,1.812-2.393,1.812h-45.5L128,254h80
	L174.55,144.5z M82.05,220.2c-3.199,0-5.599-2.399-5.6-5.598c-0.001-3.045,2.557-5.602,5.602-5.602
	c3.199,0.001,5.598,2.401,5.598,5.6C87.55,217.8,85.25,220.2,82.05,220.2z M144,138h-19.65c-5.3,0-9.8,4.7-9.8,10l0,0
	c0,5.3,4.5,10,9.8,10h19.8v42H18V31h126V138z M39.649,80.878c0,11.744,5.491,22.206,14.069,28.94v31.224h39.281v-10.462h5.772
	c8.017,0,14.51-6.493,14.51-14.51v-10.301h4.93c1.643,0,2.966-1.323,2.966-2.966c0-0.441-0.08-0.802-0.24-1.162l-7.656-20.162
	c0,0-0.802-8.017-1.523-11.103c-3.207-13.788-18.598-26.334-35.313-26.334C56.123,44.042,39.649,60.516,39.649,80.878z
	 M100.094,84.686c0-2.245,1.844-4.088,4.129-4.088c2.245,0,4.088,1.844,4.088,4.088c0,2.285-1.844,4.129-4.088,4.129
	C101.937,88.814,100.094,86.971,100.094,84.686z M44.299,80.397c0-17.596,14.269-31.826,31.826-31.826
	c9.179,0,17.396,3.888,23.208,10.061c0,0,0.361,25.372-28.419,26.014c-20.001,0-18.518,16.955-18.518,16.955
	C47.385,95.949,44.299,88.534,44.299,80.397z"/>
</svg>